<svg xmlns="http://www.w3.org/2000/svg" width="750" viewBox="0 0 750 375" height="375" version="1.0"><defs><clipPath id="a"><path d="M 71 45.3125 L 326 45.3125 L 326 324 L 71 324 Z M 71 45.3125"/></clipPath></defs><g clip-path="url(#a)"><path fill="#68805B" d="M 295.429688 295.132812 C 295.121094 283.933594 290.925781 274.015625 282.960938 265.660156 C 279.785156 262.324219 276.390625 259.046875 273.113281 255.878906 C 269.71875 252.589844 266.207031 249.1875 262.878906 245.683594 C 254.828125 237.207031 249.121094 226.808594 245.921875 214.773438 C 245.570312 213.449219 245.226562 212.121094 244.882812 210.792969 C 243.441406 205.21875 241.953125 199.457031 239.828125 194.160156 C 233.332031 177.914062 221.34375 168.832031 204.195312 167.15625 C 202.488281 166.988281 200.808594 166.902344 199.164062 166.902344 C 186.886719 166.902344 176.433594 171.542969 168.03125 180.742188 C 159.859375 189.695312 156.828125 200.871094 154.941406 210.628906 C 152.542969 223.039062 148.359375 232.808594 142.152344 240.484375 C 135.75 248.394531 128.648438 255.527344 123.171875 260.859375 C 112.65625 271.09375 107.101562 281.175781 105.695312 292.578125 C 104.789062 299.90625 106.226562 306.011719 110.085938 311.242188 C 114.152344 316.75 120.148438 320.367188 128.414062 322.304688 C 136.460938 324.1875 143.066406 324.296875 149.207031 322.65625 C 151.777344 321.964844 156.378906 321.109375 160.101562 320.46875 C 163.417969 319.898438 165.839844 317.027344 165.839844 313.664062 L 165.839844 278.484375 C 165.839844 260.292969 180.722656 245.226562 198.910156 245.359375 C 207.878906 245.421875 215.996094 249.085938 221.882812 254.972656 C 227.828125 260.914062 231.5 269.121094 231.5 278.1875 L 231.5 312.335938 C 231.5 315.867188 234.167969 318.835938 237.683594 319.203125 C 238.347656 319.273438 239.015625 319.34375 239.679688 319.414062 C 241.675781 319.625 243.613281 320.011719 245.488281 320.382812 C 246.21875 320.53125 246.949219 320.671875 247.679688 320.804688 C 250.914062 321.398438 254.140625 321.996094 257.375 322.597656 L 261.023438 323.273438 C 269.421875 322.566406 275.992188 320.824219 281.675781 317.804688 C 291.082031 312.800781 295.707031 305.171875 295.429688 295.132812 Z M 223.574219 290.742188 C 223.574219 287.824219 221.207031 285.453125 218.289062 285.453125 C 215.367188 285.453125 213 287.824219 213 290.742188 C 213 293.664062 215.367188 296.03125 218.289062 296.03125 C 221.207031 296.03125 223.574219 293.664062 223.574219 290.742188 Z M 129.777344 128.742188 C 118.917969 118.878906 110.375 114.730469 100.285156 114.425781 C 99.949219 114.414062 99.609375 114.40625 99.273438 114.40625 C 89.238281 114.40625 81.074219 119.078125 76.289062 127.550781 C 72.125 134.929688 70.9375 143.421875 72.757812 152.804688 C 74.683594 162.742188 79.167969 171.367188 86.457031 179.171875 C 95.207031 188.535156 105.097656 193.222656 116.695312 193.503906 C 124.859375 193.699219 131.925781 190.503906 137.117188 184.257812 C 141.445312 179.050781 143.761719 172.714844 144 165.425781 C 144.453125 151.378906 139.273438 138.003906 129.777344 128.742188 Z M 321.195312 126.136719 C 316.265625 116.964844 308.070312 111.914062 298.121094 111.914062 C 298.023438 111.914062 297.929688 111.917969 297.832031 111.917969 C 289.355469 112 281.40625 115.21875 274.195312 121.484375 C 266.554688 128.121094 261.328125 136.316406 258.214844 146.539062 C 254.480469 158.796875 255.367188 169.707031 260.925781 179.886719 C 264.839844 187.066406 271.140625 191.585938 279.140625 192.957031 C 285.816406 194.101562 292.460938 192.9375 298.886719 189.496094 C 311.28125 182.867188 320.269531 171.691406 323.542969 158.835938 C 326.65625 144.5 325.972656 135.023438 321.195312 126.136719 Z M 223.015625 116.5625 C 218.953125 122.621094 213.632812 126.765625 207.203125 128.890625 C 199.496094 131.433594 191.8125 130.402344 184.984375 125.90625 C 175.292969 119.523438 169.390625 110.308594 166.933594 97.734375 C 164.878906 87.25 165.648438 77.558594 169.277344 68.109375 C 172.703125 59.191406 178.210938 52.613281 185.652344 48.5625 C 189.621094 46.402344 193.761719 45.304688 197.957031 45.304688 C 203.101562 45.304688 208.148438 46.933594 212.957031 50.144531 C 221.351562 55.75 226.398438 63.796875 230.386719 77.914062 C 233.527344 90.800781 230.84375 104.886719 223.015625 116.5625"/></g><g fill="#414B3B"><g><g><path d="M 32.007812 -45.042969 C 27.058594 -45.785156 18.808594 -45.785156 13.859375 -45.042969 L 0.824219 -1.238281 C 4.539062 0.246094 9.652344 1.238281 13.445312 0.90625 L 15.675781 -7.917969 L 29.367188 -7.917969 L 31.679688 0.90625 C 35.472656 1.238281 41.25 0.246094 44.960938 -1.238281 Z M 18.3125 -18.3125 L 22.355469 -34.484375 L 26.5625 -18.3125 Z M 18.3125 -18.3125" transform="translate(321.018 247.671)"/></g></g></g><g fill="#414B3B"><g><g><path d="M 4.125 0 L 21.53125 0 C 37.617188 0 45.539062 -7.753906 45.539062 -23.015625 C 45.539062 -38.445312 37.207031 -46.28125 21.285156 -46.28125 C 14.023438 -46.28125 7.34375 -45.292969 3.300781 -44.136719 C 3.878906 -28.214844 4.125 -13.199219 4.125 0 Z M 16.828125 -11.054688 L 16.828125 -35.144531 C 16.828125 -35.144531 18.808594 -35.308594 21.449219 -35.308594 C 28.296875 -35.308594 31.84375 -31.265625 31.84375 -23.015625 C 31.84375 -18.5625 31.429688 -14.933594 30.359375 -12.128906 C 28.542969 -11.46875 25.902344 -11.054688 22.355469 -11.054688 Z M 16.828125 -11.054688" transform="translate(366.8 247.671)"/></g></g></g><g fill="#414B3B"><g><g><path d="M 25.738281 1.238281 C 40.421875 1.238281 49.085938 -7.507812 49.085938 -22.605469 C 49.085938 -35.96875 42.238281 -46.527344 25.410156 -46.527344 C 10.726562 -46.527344 2.0625 -37.785156 2.0625 -22.605469 C 2.0625 -9.320312 8.828125 1.238281 25.738281 1.238281 Z M 26.976562 -9.734375 C 20.128906 -9.734375 15.757812 -14.519531 15.757812 -22.605469 C 15.757812 -27.308594 16.167969 -30.855469 17.40625 -34.320312 C 19.71875 -35.226562 21.53125 -35.554688 24.171875 -35.554688 C 31.019531 -35.554688 35.390625 -30.773438 35.390625 -22.605469 C 35.390625 -17.984375 34.980469 -14.4375 33.742188 -10.972656 C 31.429688 -10.066406 29.617188 -9.734375 26.976562 -9.734375 Z M 26.976562 -9.734375" transform="translate(414.398 247.671)"/></g></g></g><g fill="#414B3B"><g><g><path d="M 4.125 0.328125 C 9.816406 1.15625 14.933594 0.496094 16.828125 -0.328125 L 16.828125 -13.941406 L 19.800781 -13.941406 C 33.082031 -13.941406 40.011719 -19.304688 40.011719 -30.027344 C 40.011719 -40.835938 33.578125 -46.28125 21.285156 -46.28125 C 14.023438 -46.28125 7.34375 -45.292969 3.300781 -44.136719 C 3.878906 -27.882812 4.125 -13.199219 4.125 0.328125 Z M 16.828125 -24.585938 L 16.828125 -35.144531 C 16.828125 -35.144531 18.148438 -35.308594 19.632812 -35.308594 C 24.007812 -35.308594 26.316406 -33.578125 26.316406 -29.863281 C 26.316406 -27.964844 26.070312 -26.480469 25.492188 -25.328125 C 24.253906 -24.832031 22.605469 -24.585938 20.625 -24.585938 Z M 16.828125 -24.585938" transform="translate(465.542 247.671)"/></g></g></g><g fill="#414B3B"><g><g><path d="M 15.261719 0.328125 C 20.953125 1.15625 26.070312 0.496094 27.964844 -0.328125 L 27.964844 -34.238281 L 41 -34.238281 C 41.660156 -37.289062 41.660156 -42.320312 41 -45.292969 L 1.734375 -45.292969 C 1.074219 -42.320312 1.074219 -37.289062 1.734375 -34.238281 L 14.765625 -34.238281 C 15.015625 -25.65625 15.261719 -10.726562 15.261719 0.328125 Z M 15.261719 0.328125" transform="translate(507.2 247.671)"/></g></g></g><g fill="#414B3B"><g><g><path d="M 32.007812 -45.042969 C 27.058594 -45.785156 18.808594 -45.785156 13.859375 -45.042969 L 0.824219 -1.238281 C 4.539062 0.246094 9.652344 1.238281 13.445312 0.90625 L 15.675781 -7.917969 L 29.367188 -7.917969 L 31.679688 0.90625 C 35.472656 1.238281 41.25 0.246094 44.960938 -1.238281 Z M 18.3125 -18.3125 L 22.355469 -34.484375 L 26.5625 -18.3125 Z M 18.3125 -18.3125" transform="translate(549.93 247.671)"/></g></g></g><g fill="#414B3B"><g><g><path d="M 30.195312 -45.621094 L 22.027344 -29.039062 L 13.28125 -45.621094 C 9.488281 -45.949219 3.710938 -44.960938 0 -43.476562 L 15.34375 -16.003906 C 15.507812 -10.148438 15.507812 -4.703125 15.425781 0.328125 C 21.121094 1.15625 26.234375 0.496094 28.132812 -0.328125 L 28.132812 -16.003906 L 43.476562 -43.476562 C 39.765625 -44.960938 33.988281 -45.949219 30.195312 -45.621094 Z M 30.195312 -45.621094" transform="translate(608.086 247.671)"/></g></g></g><g fill="#414B3B"><g><g><path d="M 32.007812 -45.042969 C 27.058594 -45.785156 18.808594 -45.785156 13.859375 -45.042969 L 0.824219 -1.238281 C 4.539062 0.246094 9.652344 1.238281 13.445312 0.90625 L 15.675781 -7.917969 L 29.367188 -7.917969 L 31.679688 0.90625 C 35.472656 1.238281 41.25 0.246094 44.960938 -1.238281 Z M 18.3125 -18.3125 L 22.355469 -34.484375 L 26.5625 -18.3125 Z M 18.3125 -18.3125" transform="translate(651.559 247.671)"/></g></g></g></svg>